<svg width="30" height="30" viewBox="0 0 30 30" fill="none" xmlns="http://www.w3.org/2000/svg">
<path d="M14.6287 7.02012C14.6662 5.88887 14.9762 4.22387 16.06 3.13012C17.0662 2.11387 18.2912 1.61887 19.0538 1.39262C19.1209 1.37159 19.1922 1.36722 19.2614 1.37988C19.3306 1.39254 19.3957 1.42185 19.4511 1.46528C19.5064 1.50871 19.5504 1.56496 19.5792 1.62917C19.608 1.69339 19.6207 1.76364 19.6162 1.83387C19.5662 2.91637 19.2812 4.53137 18.5462 5.39637C17.8537 6.21137 16.7413 7.29137 15.11 7.47387C15.0475 7.48063 14.9843 7.47376 14.9247 7.45374C14.8651 7.43372 14.8106 7.40102 14.7648 7.35789C14.7191 7.31477 14.6832 7.26224 14.6597 7.20393C14.6362 7.14562 14.6257 7.08291 14.6287 7.02012Z" fill="black"/>
<path d="M17.4213 27.7124C18.205 28.0124 18.9963 28.3149 19.7125 28.3149C21.2463 28.3149 25.71 24.7774 25.87 21.1049C25.8714 21.0124 25.847 20.9213 25.7995 20.8418C25.752 20.7623 25.6834 20.6976 25.6012 20.6549C24.4662 20.0199 22.6112 18.4374 22.5475 16.1362C22.4725 13.4537 23.8188 11.3237 24.8375 10.4424C25.0675 10.2437 25.1462 9.8937 24.9412 9.6712C24.0137 8.6587 22.1488 7.26495 20.4463 7.2987C19.2088 7.3237 18.0925 7.7862 17.1337 8.1812C16.4 8.48495 15.7587 8.74995 15.2262 8.74995C14.7225 8.74995 14.1175 8.48745 13.4225 8.1837C12.4875 7.7762 11.39 7.2987 10.16 7.2987C7.88 7.29995 3.375 9.18995 3.375 16.4874C3.375 20.3574 7.36875 28.4174 10.74 28.3149C11.4675 28.3149 12.245 28.0149 13.0175 27.7149C13.7775 27.4199 14.5312 27.1274 15.2262 27.1274C15.8975 27.1274 16.655 27.4187 17.4213 27.7124Z" fill="black"/>
</svg>
