<svg width="33" height="37" viewBox="0 0 33 37" fill="none" xmlns="http://www.w3.org/2000/svg">
<g id="Group 481721">
<g id="Group 481720">
<path id="Ellipse 2" d="M13.0968 6.36234C12.8679 6.70751 12.9621 7.17295 13.3072 7.40193L18.9321 11.1333C19.2773 11.3623 19.7427 11.2681 19.9717 10.9229C20.2007 10.5778 20.1065 10.1123 19.7613 9.88334L14.7614 6.56655L18.0782 1.56666C18.3072 1.22149 18.213 0.756056 17.8678 0.527076C17.5226 0.298101 17.0572 0.392294 16.8282 0.737464L13.0968 6.36234ZM22.5011 7.85076L22.1796 8.52833L22.5011 7.85076ZM30.3247 22.6995L31.0654 22.8174L30.3247 22.6995ZM26.2464 30.5478L25.7242 30.0095L25.7242 30.0095L26.2464 30.5478ZM18.2775 34.3853L18.1822 33.6414L18.2775 34.3853ZM9.59871 32.6802L9.22906 33.3328L9.59871 32.6802ZM3.67391 26.1132L4.36096 25.8124L3.67391 26.1132ZM3.59812 17.4764C3.6926 17.0731 3.44226 16.6695 3.03897 16.5751C2.63568 16.4806 2.23215 16.7309 2.13766 17.1342L3.59812 17.4764ZM13.8706 7.51204C16.6773 6.94403 19.5925 7.30059 22.1796 8.52833L22.8227 7.17319C19.9427 5.80646 16.6975 5.40953 13.5731 6.04184L13.8706 7.51204ZM22.1796 8.52833C24.7666 9.75607 26.8863 11.7889 28.2212 14.3224L29.5483 13.6232C28.0623 10.8029 25.7026 8.53992 22.8227 7.17319L22.1796 8.52833ZM28.2212 14.3224C29.556 16.8558 30.0342 19.7536 29.5841 22.5816L31.0654 22.8174C31.5665 19.6692 31.0342 16.4434 29.5483 13.6232L28.2212 14.3224ZM29.5841 22.5816C29.1339 25.4096 27.7797 28.0157 25.7242 30.0095L26.7686 31.0862C29.0568 28.8666 30.5643 25.9655 31.0654 22.8174L29.5841 22.5816ZM25.7242 30.0095C23.6687 32.0033 21.0227 33.2775 18.1822 33.6414L18.3728 35.1292C21.5348 34.7242 24.4804 33.3057 26.7686 31.0862L25.7242 30.0095ZM18.1822 33.6414C15.3418 34.0052 12.46 33.439 9.96836 32.0277L9.22906 33.3328C12.0028 34.904 15.2109 35.5342 18.3728 35.1292L18.1822 33.6414ZM9.96836 32.0277C7.47671 30.6163 5.50936 28.4357 4.36096 25.8124L2.98686 26.414C4.26527 29.3342 6.45534 31.7617 9.22906 33.3328L9.96836 32.0277ZM4.36096 25.8124C3.21255 23.1892 2.94491 20.2645 3.59812 17.4764L2.13766 17.1342C1.41051 20.238 1.70845 23.4938 2.98686 26.414L4.36096 25.8124Z" fill="white"/>
</g>
</g>
</svg>
