<svg width="80" height="35" viewBox="0 0 80 35" fill="none" xmlns="http://www.w3.org/2000/svg">
<g id="Group 481756">
<g id="Group 162606">
<g id="Back">
<path id="Rectangle 15" opacity="0.2" d="M80 17.5C80 7.83502 72.165 0 62.5 0C52.835 0 45 7.83502 45 17.5C45 27.165 52.835 35 62.5 35C72.165 35 80 27.165 80 17.5Z" fill="#94D073"/>
</g>
</g>
<g id="Group 162607">
<g id="Back_2">
<path id="Rectangle 15_2" opacity="0.2" d="M35 17.5C35 7.83502 27.165 0 17.5 0C7.83502 0 0 7.83502 0 17.5C0 27.165 7.83502 35 17.5 35C27.165 35 35 27.165 35 17.5Z" fill="#94D073"/>
</g>
<path id="Vector" d="M17.5 10C16.0166 10 14.5666 10.4399 13.3332 11.264C12.0999 12.0881 11.1386 13.2594 10.5709 14.6299C10.0032 16.0003 9.85472 17.5083 10.1441 18.9632C10.4335 20.418 11.1478 21.7544 12.1967 22.8033C13.2456 23.8522 14.582 24.5665 16.0368 24.8559C17.4917 25.1453 18.9997 24.9968 20.3701 24.4291C21.7406 23.8614 22.9119 22.9001 23.736 21.6668C24.5601 20.4334 25 18.9834 25 17.5C24.9979 15.5115 24.2071 13.6051 22.801 12.199C21.3949 10.793 19.4885 10.0021 17.5 10ZM17.5 23.8462C16.2449 23.8462 15.0179 23.474 13.9743 22.7766C12.9306 22.0793 12.1172 21.0882 11.6369 19.9286C11.1566 18.769 11.0309 17.493 11.2758 16.2619C11.5207 15.0309 12.1251 13.9001 13.0126 13.0126C13.9001 12.1251 15.0309 11.5207 16.2619 11.2758C17.493 11.0309 18.769 11.1566 19.9286 11.6369C21.0882 12.1172 22.0793 12.9306 22.7766 13.9743C23.474 15.0179 23.8462 16.2448 23.8462 17.5C23.8442 19.1825 23.175 20.7956 21.9853 21.9853C20.7956 23.175 19.1825 23.8442 17.5 23.8462ZM18.6538 20.9615C18.6538 21.1145 18.5931 21.2613 18.4849 21.3695C18.3767 21.4777 18.2299 21.5385 18.0769 21.5385C17.7709 21.5385 17.4774 21.4169 17.261 21.2005C17.0446 20.9841 16.9231 20.6906 16.9231 20.3846V17.5C16.7701 17.5 16.6233 17.4392 16.5151 17.331C16.4069 17.2228 16.3462 17.0761 16.3462 16.9231C16.3462 16.7701 16.4069 16.6233 16.5151 16.5151C16.6233 16.4069 16.7701 16.3462 16.9231 16.3462C17.2291 16.3462 17.5226 16.4677 17.739 16.6841C17.9554 16.9005 18.0769 17.194 18.0769 17.5V20.3846C18.2299 20.3846 18.3767 20.4454 18.4849 20.5536C18.5931 20.6618 18.6538 20.8085 18.6538 20.9615ZM16.3462 14.3269C16.3462 14.1558 16.3969 13.9885 16.492 13.8461C16.5871 13.7038 16.7222 13.5929 16.8804 13.5274C17.0385 13.4619 17.2125 13.4448 17.3804 13.4782C17.5482 13.5116 17.7024 13.594 17.8235 13.715C17.9445 13.836 18.0269 13.9902 18.0603 14.1581C18.0937 14.326 18.0766 14.5 18.0111 14.6581C17.9456 14.8162 17.8346 14.9514 17.6923 15.0465C17.55 15.1416 17.3827 15.1923 17.2115 15.1923C16.982 15.1923 16.7619 15.1011 16.5996 14.9388C16.4373 14.7766 16.3462 14.5564 16.3462 14.3269Z" fill="#94D073"/>
</g>
<path id="Vector_2" d="M62.8235 20.1806C63.0059 20.1806 63.1662 20.1115 63.3044 19.9732C63.4432 19.8344 63.5126 19.6741 63.5126 19.4924C63.5126 19.31 63.4432 19.1497 63.3044 19.0115C63.1656 18.8732 63.0053 18.8038 62.8235 18.8032C62.6412 18.8032 62.4809 18.8726 62.3426 19.0115C62.2044 19.1503 62.135 19.3106 62.1344 19.4924C62.1344 19.6747 62.2038 19.835 62.3426 19.9732C62.4809 20.1115 62.6412 20.1806 62.8235 20.1806ZM62.4335 17.6968H63.2135C63.2365 17.3268 63.2947 17.0482 63.3882 16.8612C63.4824 16.6741 63.7082 16.4129 64.0659 16.0776C64.4388 15.7388 64.6988 15.4359 64.8459 15.1688C64.9929 14.9029 65.0665 14.5974 65.0665 14.2521C65.0665 13.6579 64.8547 13.1629 64.4312 12.7671C64.0076 12.3706 63.4718 12.1724 62.8235 12.1724C62.3335 12.1724 61.8982 12.3047 61.5176 12.5694C61.1371 12.8341 60.8474 13.1947 60.6485 13.6512L61.3641 13.9671C61.5306 13.6224 61.7335 13.3635 61.9729 13.1906C62.2118 13.0182 62.4953 12.9321 62.8235 12.9321C63.2441 12.9321 63.5932 13.0568 63.8709 13.3062C64.1474 13.5556 64.2856 13.8776 64.2856 14.2724C64.2856 14.5124 64.2185 14.7356 64.0844 14.9421C63.9497 15.1479 63.7182 15.3965 63.39 15.6876C63.0182 16.0124 62.7659 16.3103 62.6329 16.5815C62.5 16.8521 62.4335 17.2238 62.4335 17.6968ZM58.0721 22.3529C57.6662 22.3529 57.3274 22.2171 57.0556 21.9453C56.7832 21.6729 56.6471 21.3338 56.6471 20.9279V11.425C56.6471 11.0191 56.7832 10.6803 57.0556 10.4085C57.3274 10.1362 57.6659 10 58.0712 10H67.5741C67.98 10 68.3188 10.1362 68.5906 10.4085C68.8629 10.6803 68.9991 11.0191 68.9991 11.425V20.9279C68.9991 21.3338 68.8632 21.6729 68.5915 21.9453C68.3191 22.2171 67.98 22.3529 67.5741 22.3529H58.0721ZM58.0721 21.4706H67.575C67.7103 21.4706 67.8347 21.4141 67.9482 21.3012C68.0612 21.1876 68.1176 21.0632 68.1176 20.9279V11.425C68.1176 11.2897 68.0612 11.1653 67.9482 11.0518C67.8347 10.9388 67.7103 10.8824 67.575 10.8824H58.0721C57.9368 10.8824 57.8124 10.9388 57.6988 11.0518C57.5859 11.1653 57.5294 11.2897 57.5294 11.425V20.9279C57.5294 21.0632 57.5859 21.1876 57.6988 21.3012C57.8124 21.4141 57.9368 21.4706 58.0721 21.4706ZM55.425 25C55.0191 25 54.6803 24.8641 54.4085 24.5924C54.1362 24.32 54 23.9809 54 23.575V13.1897H54.8824V23.575C54.8824 23.7103 54.9388 23.8347 55.0518 23.9482C55.1653 24.0612 55.2897 24.1176 55.425 24.1176H65.8103V25H55.425Z" fill="#94D073"/>
</g>
</svg>
