<svg width="34" height="37" viewBox="0 0 34 37" fill="none" xmlns="http://www.w3.org/2000/svg">
<g id="Group 481722">
<g id="Group 481721">
<g id="Group 481720">
<path id="Ellipse 2" d="M20.6941 6.36234C20.9231 6.70751 20.8289 7.17295 20.4837 7.40193L14.8588 11.1333C14.5137 11.3623 14.0482 11.2681 13.8192 10.9229C13.5903 10.5778 13.6845 10.1123 14.0296 9.88334L19.0295 6.56655L15.7127 1.56666C15.4837 1.22149 15.5779 0.756056 15.9231 0.527076C16.2683 0.298101 16.7337 0.392294 16.9627 0.737464L20.6941 6.36234ZM11.2898 7.85076L11.6114 8.52833L11.2898 7.85076ZM3.46619 22.6995L2.72551 22.8174L3.46619 22.6995ZM7.54451 30.5478L8.0667 30.0095L8.0667 30.0095L7.54451 30.5478ZM15.5134 34.3853L15.6087 33.6414L15.5134 34.3853ZM24.1922 32.6802L24.5619 33.3328L24.1922 32.6802ZM30.117 26.1132L29.43 25.8124L30.117 26.1132ZM30.1928 17.4764C30.0983 17.0731 30.3487 16.6695 30.752 16.5751C31.1552 16.4806 31.5588 16.7309 31.6533 17.1342L30.1928 17.4764ZM19.9203 7.51204C17.1136 6.94403 14.1984 7.30059 11.6114 8.52833L10.9682 7.17319C13.8482 5.80646 17.0934 5.40953 20.2179 6.04184L19.9203 7.51204ZM11.6114 8.52833C9.02428 9.75607 6.90459 11.7889 5.56973 14.3224L4.24267 13.6232C5.72864 10.8029 8.0883 8.53992 10.9682 7.17319L11.6114 8.52833ZM5.56973 14.3224C4.23488 16.8558 3.75672 19.7536 4.20686 22.5816L2.72551 22.8174C2.22441 19.6692 2.7567 16.4434 4.24267 13.6232L5.56973 14.3224ZM4.20686 22.5816C4.65701 25.4096 6.01123 28.0157 8.0667 30.0095L7.02231 31.0862C4.73414 28.8666 3.22662 25.9655 2.72551 22.8174L4.20686 22.5816ZM8.0667 30.0095C10.1222 32.0033 12.7683 33.2775 15.6087 33.6414L15.4181 35.1292C12.2561 34.7242 9.31048 33.3057 7.02231 31.0862L8.0667 30.0095ZM15.6087 33.6414C18.4491 34.0052 21.3309 33.439 23.8226 32.0277L24.5619 33.3328C21.7881 34.904 18.5801 35.5342 15.4181 35.1292L15.6087 33.6414ZM23.8226 32.0277C26.3142 30.6163 28.2816 28.4357 29.43 25.8124L30.8041 26.414C29.5257 29.3342 27.3356 31.7617 24.5619 33.3328L23.8226 32.0277ZM29.43 25.8124C30.5784 23.1892 30.846 20.2645 30.1928 17.4764L31.6533 17.1342C32.3804 20.238 32.0825 23.4938 30.8041 26.414L29.43 25.8124Z" fill="white"/>
</g>
</g>
</g>
</svg>
