<svg width="35" height="35" viewBox="0 0 35 35" fill="none" xmlns="http://www.w3.org/2000/svg">
<g id="Group 162427">
<g id="Group 162610">
<path id="Rectangle 674" opacity="0.2" d="M35 17.5C35 7.83502 27.165 0 17.5 0C7.83502 0 0 7.83502 0 17.5C0 27.165 7.83502 35 17.5 35C27.165 35 35 27.165 35 17.5Z" fill="#94D073"/>
<path id="Vector" d="M22.0003 26.7778C21.7068 26.778 21.4253 26.6622 21.2169 26.4556L17.5558 22.7889L13.9225 26.4111C13.7688 26.5754 13.5688 26.6892 13.3491 26.7373C13.1293 26.7855 12.9001 26.7659 12.6918 26.681C12.4835 26.5961 12.3058 26.4499 12.1823 26.2619C12.0588 26.0738 11.9954 25.8527 12.0003 25.6278V10.1111C12.0003 9.81643 12.1173 9.53381 12.3257 9.32544C12.5341 9.11706 12.8167 9 13.1114 9H22.0003C22.2949 9 22.5776 9.11706 22.7859 9.32544C22.9943 9.53381 23.1114 9.81643 23.1114 10.1111V25.6667C23.1114 25.9614 22.9943 26.244 22.7859 26.4523C22.5776 26.6607 22.2949 26.7778 22.0003 26.7778ZM22.0003 25.6667V10.1111H13.1114V25.6278L17.5558 21.2222L22.0003 25.6667Z" fill="#94D073"/>
</g>
</g>
</svg>
