<svg width="16" height="20" viewBox="0 0 16 20" fill="none" xmlns="http://www.w3.org/2000/svg">
<path id="Vector" d="M12.25 10H13.825C14.004 10 14.1757 10.0711 14.3023 10.1977C14.4289 10.3243 14.5 10.496 14.5 10.675V18.325C14.5 18.504 14.4289 18.6757 14.3023 18.8023C14.1757 18.9289 14.004 19 13.825 19H1.675C1.49598 19 1.32429 18.9289 1.1977 18.8023C1.07112 18.6757 1 18.504 1 18.325V10.675C1 10.496 1.07112 10.3243 1.1977 10.1977C1.32429 10.0711 1.49598 10 1.675 10H3.25M12.25 10V5.5C12.25 4.00038 11.35 1 7.75 1C4.15 1 3.25 4.00038 3.25 5.5V10M12.25 10H3.25" stroke="#777777" stroke-width="1.5" stroke-linecap="round" stroke-linejoin="round"/>
</svg>
