<svg width="13" height="13" viewBox="0 0 13 13" fill="none" xmlns="http://www.w3.org/2000/svg">
<path id="Vector" d="M6.5 0C5.21442 0 3.95772 0.381218 2.8888 1.09545C1.81988 1.80968 0.986755 2.82484 0.494786 4.01256C0.00281635 5.20028 -0.125905 6.50721 0.124899 7.76809C0.375702 9.02896 0.994767 10.1872 1.90381 11.0962C2.81285 12.0052 3.97104 12.6243 5.23191 12.8751C6.49279 13.1259 7.79972 12.9972 8.98744 12.5052C10.1752 12.0132 11.1903 11.1801 11.9046 10.1112C12.6188 9.04228 13 7.78558 13 6.5C12.9982 4.77665 12.3128 3.12441 11.0942 1.90582C9.87559 0.687223 8.22335 0.00181989 6.5 0ZM6.5 12C5.4122 12 4.34884 11.6774 3.44437 11.0731C2.5399 10.4687 1.83495 9.60975 1.41867 8.60476C1.00238 7.59976 0.893465 6.4939 1.10568 5.427C1.3179 4.36011 1.84173 3.3801 2.61091 2.61091C3.3801 1.84172 4.36011 1.3179 5.427 1.10568C6.4939 0.893462 7.59977 1.00238 8.60476 1.41866C9.60975 1.83494 10.4687 2.53989 11.0731 3.44436C11.6774 4.34883 12 5.4122 12 6.5C11.9983 7.95818 11.4184 9.35617 10.3873 10.3873C9.35617 11.4183 7.95818 11.9983 6.5 12ZM7.5 9.5C7.5 9.63261 7.44732 9.75978 7.35355 9.85355C7.25979 9.94732 7.13261 10 7 10C6.73478 10 6.48043 9.89464 6.29289 9.7071C6.10536 9.51957 6 9.26521 6 9V6.5C5.86739 6.5 5.74022 6.44732 5.64645 6.35355C5.55268 6.25978 5.5 6.13261 5.5 6C5.5 5.86739 5.55268 5.74021 5.64645 5.64645C5.74022 5.55268 5.86739 5.5 6 5.5C6.26522 5.5 6.51957 5.60536 6.70711 5.79289C6.89464 5.98043 7 6.23478 7 6.5V9C7.13261 9 7.25979 9.05268 7.35355 9.14644C7.44732 9.24021 7.5 9.36739 7.5 9.5ZM5.5 3.75C5.5 3.60166 5.54399 3.45666 5.6264 3.33332C5.70881 3.20998 5.82594 3.11386 5.96299 3.05709C6.10003 3.00032 6.25083 2.98547 6.39632 3.01441C6.5418 3.04335 6.67544 3.11478 6.78033 3.21967C6.88522 3.32456 6.95665 3.4582 6.98559 3.60368C7.01453 3.74917 6.99968 3.89997 6.94291 4.03701C6.88614 4.17406 6.79002 4.29119 6.66668 4.3736C6.54334 4.45601 6.39834 4.5 6.25 4.5C6.05109 4.5 5.86032 4.42098 5.71967 4.28033C5.57902 4.13968 5.5 3.94891 5.5 3.75Z" fill="#94D073"/>
</svg>
